<svg width="71" height="46" viewBox="0 0 71 46" fill="none" xmlns="http://www.w3.org/2000/svg">
<g filter="url(#filter0_d_282_28)">
<path d="M13.0882 19.3824L5 5.90198H60L50.2941 19.3824L60 36.0981H5L13.0882 19.3824Z" fill="#FFE588"/>
</g>
<path d="M19.5587 19.3824L13.6273 6.44118H5.53906L12.5489 19.3824L5.53906 36.098L19.5587 19.3824Z" fill="#FFD234"/>
<g filter="url(#filter1_d_282_28)">
<path d="M20.7921 18.2776C20.608 17.4839 20.516 16.857 20.516 16.3969C20.516 15.9367 20.5333 15.5169 20.5678 15.1373H30.5929C30.6389 15.6894 30.6619 16.0633 30.6619 16.2588C30.6619 16.7535 30.5699 17.4264 30.3858 18.2776C30.0522 18.3697 29.5058 18.4157 28.7466 18.4157L28.3497 16.6729H26.8831C26.8716 17.1101 26.8198 20.0722 26.7278 25.5592L27.9701 25.7145C27.9701 26.2437 27.8378 26.7441 27.5733 27.2157H23.3803L23.225 26.2667C24.0188 25.9676 24.5191 25.8008 24.7262 25.7663C24.7262 25.7203 24.6572 22.6949 24.5191 16.6902H22.8109L22.4313 18.3812C21.7526 18.3812 21.2062 18.3467 20.7921 18.2776ZM35.0117 18.3812C35.2303 18.3812 35.3683 18.3869 35.4259 18.3984C35.4259 18.9621 35.3281 19.4855 35.1325 19.9686C35.0865 22.4533 35.0578 24.3169 35.0463 25.5592L36.3921 25.7145C36.3921 26.1861 36.2598 26.6865 35.9953 27.2157H31.6988L31.5435 26.2667C32.2567 26.0021 32.7744 25.8295 33.0964 25.749L32.9066 20.1584C32.228 20.0894 31.7276 20.0031 31.4055 19.8996C31.4055 19.612 31.4457 19.1979 31.5263 18.6573C32.2049 18.4732 33.3668 18.3812 35.0117 18.3812ZM35.0117 15.12C35.1153 15.6376 35.167 16.0345 35.167 16.3106C35.167 16.5752 35.144 16.8742 35.098 17.2078C34.6379 17.3114 34.2468 17.3631 33.9247 17.3631C33.6141 17.3631 33.2345 17.3459 32.7859 17.3114C32.6823 16.7937 32.6306 16.4026 32.6306 16.138C32.6306 15.862 32.6536 15.5571 32.6996 15.2235C33.1597 15.12 33.5451 15.0682 33.8557 15.0682C34.1778 15.0682 34.5631 15.0855 35.0117 15.12ZM41.3204 25.7318C41.7115 25.7318 42.5053 25.4614 43.7016 24.9208C43.9547 25.2889 44.1445 25.7145 44.271 26.1976C43.6383 26.5888 43.0172 26.8936 42.4075 27.1122C41.8093 27.3192 41.3837 27.4227 41.1306 27.4227C39.7387 27.4227 38.6804 27.0374 37.9557 26.2667C37.2425 25.4959 36.8859 24.4031 36.8859 22.9882C36.8859 21.5618 37.2425 20.4173 37.9557 19.5545C38.6689 18.6803 39.7272 18.2431 41.1306 18.2431C42.2464 18.2431 43.0977 18.6055 43.6844 19.3302C44.271 20.0549 44.5644 20.9982 44.5644 22.16C44.5644 22.4016 44.4263 22.6776 44.1502 22.9882L39.1808 22.902C39.2038 23.8222 39.3764 24.5239 39.6985 25.0071C40.0206 25.4902 40.5612 25.7318 41.3204 25.7318ZM40.9753 19.6753C40.5382 19.6753 40.1298 19.7616 39.7502 19.9341C39.4857 20.4863 39.3189 20.9982 39.2498 21.4698C40.1471 21.4353 41.1651 21.4123 42.304 21.4008C42.2464 20.2505 41.8036 19.6753 40.9753 19.6753Z" fill="black"/>
</g>
<defs>
<filter id="filter0_d_282_28" x="0.686274" y="0.50982" width="70.098" height="45.2941" filterUnits="userSpaceOnUse" color-interpolation-filters="sRGB">
<feFlood flood-opacity="0" result="BackgroundImageFix"/>
<feColorMatrix in="SourceAlpha" type="matrix" values="0 0 0 0 0 0 0 0 0 0 0 0 0 0 0 0 0 0 127 0" result="hardAlpha"/>
<feOffset dx="3.23529" dy="2.15686"/>
<feGaussianBlur stdDeviation="3.77451"/>
<feComposite in2="hardAlpha" operator="out"/>
<feColorMatrix type="matrix" values="0 0 0 0 0 0 0 0 0 0 0 0 0 0 0 0 0 0 0.34 0"/>
<feBlend mode="normal" in2="BackgroundImageFix" result="effect1_dropShadow_282_28"/>
<feBlend mode="normal" in="SourceGraphic" in2="effect1_dropShadow_282_28" result="shape"/>
</filter>
<filter id="filter1_d_282_28" x="20.5161" y="15.0682" width="28.3621" height="16.6682" filterUnits="userSpaceOnUse" color-interpolation-filters="sRGB">
<feFlood flood-opacity="0" result="BackgroundImageFix"/>
<feColorMatrix in="SourceAlpha" type="matrix" values="0 0 0 0 0 0 0 0 0 0 0 0 0 0 0 0 0 0 127 0" result="hardAlpha"/>
<feOffset dx="2.15686" dy="2.15686"/>
<feGaussianBlur stdDeviation="1.07843"/>
<feComposite in2="hardAlpha" operator="out"/>
<feColorMatrix type="matrix" values="0 0 0 0 0 0 0 0 0 0 0 0 0 0 0 0 0 0 0.2 0"/>
<feBlend mode="normal" in2="BackgroundImageFix" result="effect1_dropShadow_282_28"/>
<feBlend mode="normal" in="SourceGraphic" in2="effect1_dropShadow_282_28" result="shape"/>
</filter>
</defs>
</svg>
